<?xml version="1.0" standalone="no"?>
<!DOCTYPE svg PUBLIC "-//W3C//DTD SVG 20010904//EN"
 "http://www.w3.org/TR/2001/REC-SVG-20010904/DTD/svg10.dtd">
<svg version="1.0" xmlns="http://www.w3.org/2000/svg"
 width="1920.000000pt" height="1306.000000pt" viewBox="0 0 1920.000000 1306.000000"
 preserveAspectRatio="xMidYMid meet">

<g transform="translate(0.000000,1306.000000) scale(0.100000,-0.100000)"
fill="#000000" stroke="none">
<path d="M0 6530 l0 -6530 9600 0 9600 0 0 6530 0 6530 -9600 0 -9600 0 0
-6530z m14619 5438 c12 -20 13 -32 4 -50 -14 -32 -477 -311 -515 -311 -38 0
-58 20 -58 59 0 41 -5 37 270 204 178 107 221 129 250 127 26 -1 38 -9 49 -29z
m3355 -403 l16 -30 -23 28 c-12 15 -28 27 -34 27 -6 0 -13 6 -16 14 -10 27 39
-7 57 -39z m-54 3 c0 -5 -4 -8 -10 -8 -5 0 -10 7 -10 15 0 20 -26 19 -34 -1
-9 -23 -7 -34 4 -34 6 0 11 8 11 18 1 16 2 16 6 -1 2 -9 9 -14 15 -11 7 4 8 2
4 -4 -4 -7 -2 -12 3 -12 6 0 11 4 11 10 0 5 8 7 18 4 14 -5 14 -4 2 5 -8 5
-11 13 -7 18 9 8 27 -15 27 -36 0 -8 -6 -11 -17 -7 -9 4 -20 1 -25 -6 -6 -10
-11 -9 -19 5 -6 9 -15 15 -21 11 -6 -4 -5 -10 3 -15 10 -6 10 -9 2 -9 -13 0
-33 30 -33 49 0 6 9 20 21 32 20 20 21 20 34 2 8 -10 15 -21 15 -25z m85 -83
c0 -29 -10 -33 -19 -8 -4 9 -1 20 6 25 7 4 13 8 13 8 0 0 0 -11 0 -25z m-81
-27 c16 6 25 0 19 -15 -6 -15 -7 -15 -14 3 -5 13 -8 14 -9 4 -1 -16 -29 27
-29 45 0 6 6 -1 14 -15 7 -14 16 -24 19 -22z m-14771 -129 c149 -83 278 -158
285 -167 31 -39 4 -102 -44 -102 -14 0 -153 71 -309 158 -221 122 -287 163
-295 184 -20 45 20 93 68 83 12 -3 145 -73 295 -156z m14821 116 c-4 -8 -8
-15 -10 -15 -2 0 -4 7 -4 15 0 8 4 15 10 15 5 0 7 -7 4 -15z m23 -17 c-3 -8
-6 -5 -6 6 -1 11 2 17 5 13 3 -3 4 -12 1 -19z m28 12 c3 -5 1 -10 -4 -10 -6 0
-11 5 -11 10 0 6 2 10 4 10 3 0 8 -4 11 -10z m15 -35 c-6 -15 -13 -25 -16 -23
-2 3 1 17 7 32 7 14 14 24 16 22 2 -2 -1 -16 -7 -31z m-90 5 c0 -5 -2 -10 -4
-10 -3 0 -8 5 -11 10 -3 6 -1 10 4 10 6 0 11 -4 11 -10z m35 0 c3 -5 1 -10 -4
-10 -6 0 -11 5 -11 10 0 6 2 10 4 10 3 0 8 -4 11 -10z m11 -28 c-17 -16 -18
-16 -5 5 7 12 15 20 18 17 3 -2 -3 -12 -13 -22z m77 15 c3 -8 -1 -14 -8 -14
-7 0 -11 6 -8 14 3 7 6 13 8 13 2 0 5 -6 8 -13z m-93 -51 c0 -6 -7 -1 -15 10
-8 10 -15 23 -15 28 0 6 7 1 15 -10 8 -10 15 -23 15 -28z m115 14 c3 -5 1 -10
-4 -10 -6 0 -11 5 -11 10 0 6 2 10 4 10 3 0 8 -4 11 -10z m35 -62 c0 -4 -5 -8
-11 -8 -5 0 -7 5 -4 10 3 6 1 10 -4 10 -6 0 -11 8 -11 18 1 15 2 15 15 -2 8
-11 15 -23 15 -28z m-130 22 c0 -5 -2 -10 -4 -10 -3 0 -8 5 -11 10 -3 6 -1 10
4 10 6 0 11 -4 11 -10z m94 -22 c-3 -4 4 -17 15 -29 19 -20 19 -49 0 -49 -4 0
-6 7 -3 15 8 20 -13 45 -32 38 -10 -4 -12 0 -8 11 3 9 10 16 15 16 4 0 6 8 3
18 -5 14 -4 14 4 2 6 -8 8 -18 6 -22z m-71 -14 c-2 -6 0 -15 6 -19 6 -3 11 1
11 9 0 8 4 18 10 21 6 3 7 -1 4 -10 -9 -21 16 -51 27 -33 6 9 9 4 9 -14 0 -14
3 -33 6 -41 3 -8 -2 -17 -10 -20 -10 -4 -13 -1 -10 8 8 19 -28 78 -37 63 -4
-7 -13 1 -22 19 -13 24 -13 30 -2 30 7 0 11 -6 8 -13z m122 -14 c3 -5 1 -10
-4 -10 -6 0 -11 5 -11 10 0 6 2 10 4 10 3 0 8 -4 11 -10z m15 -41 c4 8 12 1
21 -21 7 -18 19 -39 26 -46 7 -7 13 -19 13 -27 0 -7 4 -15 8 -17 4 -1 18 -17
30 -35 22 -31 22 -34 7 -63 -17 -32 -35 -40 -35 -14 0 8 5 12 10 9 14 -8 30
37 19 51 -5 6 -20 9 -34 6 -16 -3 -25 0 -25 8 0 7 8 10 20 7 11 -3 20 -1 20 4
0 5 -4 9 -10 9 -5 0 -18 17 -29 38 l-20 37 4 -37 c3 -25 -1 -38 -10 -42 -9 -3
-12 0 -8 11 3 8 0 19 -8 24 -22 13 -29 11 -23 -8 5 -15 4 -16 -5 -3 -16 22
-14 43 4 36 8 -3 21 -8 28 -11 9 -4 12 3 11 22 -2 41 -2 41 -23 48 -14 4 -18
11 -13 23 6 15 7 15 10 -2 3 -13 6 -15 12 -7z m-91 -33 c-3 -3 -11 5 -18 17
-13 21 -12 21 5 5 10 -10 16 -20 13 -22z m-1709 -6 c24 -24 26 -53 5 -73 -8
-8 -92 -61 -187 -118 -95 -56 -225 -134 -288 -172 -63 -39 -135 -81 -160 -95
-25 -14 -81 -47 -126 -73 -89 -54 -114 -59 -144 -29 -26 26 -25 43 3 73 19 21
228 152 337 211 40 21 321 188 425 253 78 48 106 52 135 23z m1755 -61 c11
-17 -1 -21 -15 -4 -8 9 -8 15 -2 15 6 0 14 -5 17 -11z m-12589 -53 c29 -30
504 -816 504 -835 0 -29 -34 -61 -65 -61 -14 0 -35 10 -47 23 -44 47 -498 801
-498 827 0 59 66 88 106 46z m-3926 -50 c13 -23 13 -29 0 -53 -13 -22 -61 -44
-307 -140 -315 -122 -331 -126 -353 -68 -19 51 2 70 139 124 69 27 191 75 271
107 80 31 156 60 170 64 34 10 62 -2 80 -34z m16570 40 c0 -2 -7 -6 -15 -10
-8 -3 -15 -1 -15 4 0 6 7 10 15 10 8 0 15 -2 15 -4z m55 -99 c2 -10 7 -28 10
-40 3 -12 -3 -6 -14 13 -11 19 -20 51 -20 70 l1 35 9 -30 c6 -16 12 -38 14
-48z m-39 48 c10 -26 -1 -35 -13 -10 -6 14 -7 25 -2 25 5 0 12 -7 15 -15z
m118 -19 c-3 -8 -15 -14 -25 -13 -19 1 -19 2 -3 14 23 17 35 16 28 -1z m31
-46 c3 -5 1 -10 -4 -10 -6 0 -11 5 -11 10 0 6 2 10 4 10 3 0 8 -4 11 -10z
m-9845 -20 c19 -19 20 -33 20 -292 0 -150 -4 -278 -8 -284 -4 -6 -17 -16 -30
-23 -30 -16 -74 5 -83 39 -12 45 -10 519 2 543 23 43 66 50 99 17z m9871 -22
c11 -21 11 -22 -4 -9 -10 8 -17 9 -17 3 0 -6 5 -14 10 -17 7 -4 7 -11 2 -18
-5 -7 -8 -20 -7 -30 2 -9 0 -15 -5 -12 -7 4 -7 62 -1 98 2 13 10 8 22 -15z
m-94 -20 c-2 -7 0 -22 5 -33 9 -20 9 -20 -6 -1 -18 23 -21 46 -5 46 6 0 9 -6
6 -12z m30 -10 c-3 -8 -6 -5 -6 6 -1 11 2 17 5 13 3 -3 4 -12 1 -19z m24 -26
c-4 -15 -6 -32 -4 -39 5 -15 -14 -26 -22 -13 -3 5 -1 10 5 10 6 0 9 4 6 9 -8
13 5 72 14 66 5 -3 5 -18 1 -33z m59 3 c-7 -8 -7 -15 -1 -19 5 -3 11 -1 13 6
3 8 6 7 10 -4 5 -11 0 -15 -15 -14 -12 1 -22 7 -21 14 3 38 5 43 14 37 8 -5 8
-11 0 -20z m39 -77 c0 -28 -2 -30 -9 -13 -12 28 -12 45 0 45 6 0 10 -15 9 -32z
m28 -27 c0 -11 -4 -19 -7 -18 -3 1 -15 -4 -27 -11 -20 -11 -23 -10 -23 3 0 9
4 14 10 10 5 -3 17 3 27 14 23 25 22 24 20 2z m-50 -51 c10 0 25 6 33 13 12
10 12 9 1 -5 -7 -10 -23 -18 -34 -18 -22 0 -57 27 -57 43 0 6 8 0 19 -11 10
-12 27 -22 38 -22z m-16955 -742 c-20 -20 -14 -55 13 -76 21 -17 23 -21 10
-32 -13 -10 -15 -9 -15 9 0 12 -4 20 -9 17 -10 -7 -21 16 -22 47 0 21 -1 21
-9 2 -7 -16 -9 -17 -9 -3 -1 9 9 24 21 32 27 19 37 21 20 4z m83 -56 c17 -26
40 -63 52 -82 l23 -36 -34 1 c-45 0 -52 9 -32 40 20 31 14 45 -22 46 -17 1
-21 3 -9 6 21 5 22 22 2 29 -8 3 -17 15 -21 26 -6 19 -6 19 -20 1 -12 -16 -13
-16 -14 -1 0 17 17 28 35 21 6 -2 24 -25 40 -51z m-40 -2 c3 -5 1 -10 -4 -10
-6 0 -11 5 -11 10 0 6 2 10 4 10 3 0 8 -4 11 -10z m-65 -21 c0 -6 -4 -7 -10
-4 -5 3 -10 11 -10 16 0 6 5 7 10 4 6 -3 10 -11 10 -16z m72 -61 c-9 -9 -12
-7 -12 12 0 19 3 21 12 12 9 -9 9 -15 0 -24z m-22 -10 c0 -6 -6 -5 -15 2 -8 7
-15 14 -15 16 0 2 7 1 15 -2 8 -4 15 -11 15 -16z m37 -36 c15 12 15 11 4 -10
-12 -23 -13 -23 -26 -5 -8 10 -14 23 -14 28 0 6 4 2 10 -8 9 -15 13 -16 26 -5z
m119 -44 c-1 -13 5 -23 11 -23 7 0 20 -10 28 -22 10 -14 12 -23 5 -23 -6 0
-15 10 -20 23 -8 21 -9 21 -9 -5 -1 -14 5 -28 12 -31 6 -2 8 -8 4 -13 -12 -12
-37 24 -37 53 0 13 -5 23 -10 23 -7 0 -7 6 0 20 14 26 17 25 16 -2z m-76 -49
c16 -30 8 -31 -13 -3 -10 13 -13 24 -8 24 6 0 15 -9 21 -21z m30 11 c0 -5 -4
-10 -10 -10 -5 0 -10 5 -10 10 0 6 5 10 10 10 6 0 10 -4 10 -10z m28 -17 c0
-21 -2 -23 -10 -9 -5 9 -6 21 -3 26 10 16 13 12 13 -17z m2 -38 c5 3 11 1 15
-5 3 -5 -3 -10 -14 -10 -12 0 -21 6 -21 13 0 8 -4 7 -10 -3 -11 -17 -13 -9 -4
15 6 16 8 16 16 1 5 -9 13 -14 18 -11z m109 -56 c-6 -3 -7 -13 -3 -22 12 -31
-4 -17 -20 18 -9 19 -23 35 -31 35 -12 0 -11 4 3 18 16 17 18 17 38 -13 12
-16 18 -33 13 -36z m-73 14 c7 -10 14 -29 14 -42 0 -24 0 -24 15 -5 8 10 14
15 14 9 0 -5 -6 -19 -14 -29 -17 -23 -20 -40 -5 -31 6 3 10 4 10 1 0 -3 -4 -7
-9 -10 -5 -4 -23 16 -40 44 -17 27 -26 50 -20 50 6 0 13 -9 16 -20 3 -11 9
-18 13 -15 10 6 1 45 -11 45 -5 0 -9 5 -9 10 0 15 11 12 26 -7z m104 -38 c11
-13 10 -14 -4 -9 -9 3 -16 10 -16 15 0 13 6 11 20 -6z m19 -93 c-7 -14 -20
-27 -28 -30 -8 -3 -11 0 -7 6 3 6 0 13 -6 16 -7 3 -3 3 8 1 17 -4 23 0 28 19
3 13 4 33 1 43 -3 10 0 7 7 -6 10 -19 9 -28 -3 -49z m-59 -17 c7 -8 8 -15 2
-15 -5 0 -15 7 -22 15 -7 8 -8 15 -2 15 5 0 15 -7 22 -15z m5150 -275 c-8 -5
-12 -12 -8 -15 3 -4 15 -1 27 7 28 17 49 -1 32 -29 -11 -16 -11 -16 -6 5 5 16
2 22 -9 22 -9 0 -15 -6 -13 -12 1 -7 -4 -12 -12 -10 -7 1 -20 -5 -28 -15 -13
-16 -13 -16 -3 5 8 16 8 22 -1 22 -8 0 -8 4 1 15 7 8 18 15 24 15 6 0 4 -4 -4
-10z m70 -68 c-6 -2 -10 -10 -10 -17 0 -8 -4 -16 -9 -19 -5 -4 -4 10 2 29 7
24 13 31 18 23 5 -7 4 -14 -1 -16z m3772 1 c21 -19 23 -52 6 -75 -7 -9 -125
-93 -262 -187 -266 -183 -291 -194 -322 -146 -31 47 -16 64 182 201 302 208
327 224 353 224 13 0 33 -7 43 -17z m-3842 -19 c0 -8 -5 -12 -10 -9 -6 4 -8
11 -5 16 9 14 15 11 15 -7z m87 -16 c-3 -8 -6 -5 -6 6 -1 11 2 17 5 13 3 -3 4
-12 1 -19z m33 -62 c0 -3 -4 -8 -10 -11 -5 -3 -10 -1 -10 4 0 6 5 11 10 11 6
0 10 -2 10 -4z m-33 -108 c-3 -7 -5 -2 -5 12 0 14 2 19 5 13 2 -7 2 -19 0 -25z
m93 -43 c0 -5 -9 3 -19 18 -10 16 -21 25 -23 20 -3 -4 -4 -3 -2 3 1 6 -1 16
-4 21 -4 5 5 -5 21 -21 15 -17 27 -35 27 -41z m-49 -158 c-10 -9 -11 -8 -5 6
3 10 9 15 12 12 3 -3 0 -11 -7 -18z m29 -7 c0 -5 -5 -10 -11 -10 -5 0 -7 5 -4
10 3 6 8 10 11 10 2 0 4 -4 4 -10z m51 -17 c-12 -20 -14 -14 -5 12 4 9 9 14
11 11 3 -2 0 -13 -6 -23z m-22 -50 c2 -2 -3 -3 -11 -3 -9 0 -24 12 -33 28
l-18 27 29 -25 c16 -14 31 -26 33 -27z m51 17 c-6 -11 -16 -20 -23 -19 -9 0
-9 2 1 6 6 2 12 11 12 19 0 8 5 14 10 14 7 0 7 -6 0 -20z m7351 -1013 c8 -7
59 -122 113 -256 89 -223 96 -246 85 -273 -13 -32 -49 -46 -83 -30 -19 8 -44
61 -120 252 -53 133 -96 249 -96 259 0 49 62 79 101 48z m-5611 -191 c315
-145 377 -177 388 -200 12 -23 11 -31 -2 -51 -32 -49 -33 -49 -376 110 -80 37
-189 87 -244 111 -136 62 -200 95 -208 108 -4 6 -8 23 -8 38 0 28 31 58 60 58
8 -1 184 -78 390 -174z m4175 132 c29 -13 41 -47 26 -75 -5 -11 -79 -62 -163
-113 -84 -52 -264 -163 -400 -247 -235 -145 -260 -158 -299 -155 -23 3 -43 55
-31 79 11 20 817 523 839 523 1 0 14 -5 28 -12z m-11779 -123 c3 -13 1 -32 -5
-43 -17 -31 -474 -332 -504 -332 -54 0 -76 60 -34 97 24 23 404 278 451 304
38 21 83 8 92 -26z m1769 -405 c-10 -11 -21 -18 -23 -15 -3 3 3 12 14 20 27
20 30 18 9 -5z m59 -36 c3 -8 2 -12 -4 -9 -6 3 -10 10 -10 16 0 14 7 11 14 -7z
m22 -40 c-9 -19 -12 -20 -15 -7 -2 10 1 19 7 21 6 2 8 11 5 20 -4 13 -3 14 5
4 6 -9 5 -22 -2 -38z m-59 14 c-3 -8 -6 -5 -6 6 -1 11 2 17 5 13 3 -3 4 -12 1
-19z m-29 -8 c-7 -10 -14 -17 -17 -15 -4 4 18 35 25 35 2 0 -1 -9 -8 -20z m60
-11 c-3 -8 -7 -3 -11 10 -4 17 -3 21 5 13 5 -5 8 -16 6 -23z m92 -114 c0 -5
-5 -3 -10 5 -5 8 -10 20 -10 25 0 6 5 3 10 -5 5 -8 10 -19 10 -25z m23 -70
c-3 -9 -8 -14 -10 -11 -3 3 -2 9 2 15 9 16 15 13 8 -4z m-68 -63 c-3 -3 -5 1
-5 9 0 12 -2 11 -11 -1 -9 -12 -10 -12 -5 3 3 10 6 24 7 30 0 7 5 1 10 -12 5
-13 7 -26 4 -29z m5 -47 c0 -5 -5 -3 -10 5 -5 8 -10 20 -10 25 0 6 5 3 10 -5
5 -8 10 -19 10 -25z m14220 -15 c11 -11 20 -31 20 -45 0 -26 -2 -28 -200 -179
-424 -324 -603 -456 -618 -456 -26 0 -62 37 -62 64 0 30 17 45 305 263 138
104 304 231 370 281 69 52 130 92 143 92 12 0 31 -9 42 -20z m-14200 -4 c0 -3
-4 -8 -10 -11 -5 -3 -10 -1 -10 4 0 6 5 11 10 11 6 0 10 -2 10 -4z m37 -48
c-3 -8 -6 -5 -6 6 -1 11 2 17 5 13 3 -3 4 -12 1 -19z m-14 -9 c4 -16 3 -18 -9
-8 -16 13 -19 29 -5 29 5 0 11 -9 14 -21z m106 -19 c0 -10 -3 -8 -9 5 -12 27
-12 43 0 25 5 -8 9 -22 9 -30z m-35 17 c4 4 4 -1 0 -10 -3 -10 -7 -17 -8 -15
-1 2 -8 12 -16 23 -14 18 -13 19 1 8 9 -7 19 -10 23 -6z m28 -69 c-7 -7 -12
-8 -12 -2 0 14 12 26 19 19 2 -3 -1 -11 -7 -17z m-27 -20 c5 -4 0 -6 -12 -6
-13 1 -19 7 -16 15 3 8 8 10 12 6 3 -4 10 -11 16 -15z m11573 -825 c12 -10 70
-139 132 -290 109 -268 110 -273 95 -303 -13 -24 -22 -30 -49 -30 -19 0 -39 7
-48 18 -22 24 -228 530 -228 558 0 29 33 64 59 64 10 0 28 -8 39 -17z m3409
-170 c29 -25 293 -505 293 -531 0 -27 -33 -62 -59 -62 -10 0 -28 8 -39 18 -12
9 -85 130 -162 269 -105 186 -140 257 -135 272 16 50 66 66 102 34z m-10351
-238 l26 -26 -4 -283 c-3 -263 -4 -286 -22 -305 -24 -27 -68 -27 -92 0 -18 20
-19 37 -16 303 2 154 5 288 8 297 4 16 38 37 62 38 7 1 24 -10 38 -24z m-3548
-941 c25 -17 30 -61 10 -86 -18 -22 -602 -328 -627 -328 -48 0 -79 70 -46 104
9 8 73 45 143 82 70 37 201 107 292 155 91 48 174 88 185 89 11 0 31 -7 43
-16z m8454 -1001 c19 -17 24 -58 10 -81 -5 -7 -136 -98 -293 -202 -187 -126
-292 -190 -310 -190 -36 0 -61 31 -57 71 3 32 18 44 291 226 295 198 321 210
359 176z m-3817 -399 c9 -4 46 -68 82 -143 185 -386 253 -534 253 -552 0 -10
-9 -28 -20 -39 -41 -41 -81 -20 -119 63 -16 34 -63 134 -106 222 -188 392
-191 401 -158 437 17 19 39 23 68 12z m-2207 -206 c5 -7 53 -122 106 -255 101
-257 105 -277 57 -302 -22 -12 -60 -2 -78 20 -16 21 -193 471 -193 493 0 45
80 78 108 44z m7071 -205 c113 -144 240 -331 241 -355 0 -32 -31 -68 -59 -68
-30 0 -60 32 -182 200 -131 181 -139 197 -116 234 28 41 78 36 116 -11z
m-12127 -70 c8 -10 90 -127 182 -260 171 -250 184 -277 149 -315 -21 -23 -65
-23 -86 0 -56 61 -357 508 -357 529 0 10 7 29 16 41 19 27 74 30 96 5z m16922
-1029 c19 -19 21 -64 4 -86 -20 -23 -784 -448 -807 -448 -47 0 -77 65 -48 102
10 14 181 112 672 387 113 63 152 73 179 45z m-6769 -302 c-3 -3 -11 0 -18 7
-9 10 -8 11 6 5 10 -3 15 -9 12 -12z m-71 -38 c3 -8 2 -12 -4 -9 -6 3 -10 10
-10 16 0 14 7 11 14 -7z m66 12 c0 -2 -7 -7 -16 -10 -8 -3 -12 -2 -9 4 6 10
25 14 25 6z m-42 -112 c0 -17 -3 -22 -8 -13 -5 6 -6 18 -3 26 3 7 0 13 -6 13
-6 0 -11 5 -11 11 0 8 4 8 14 0 7 -6 14 -23 14 -37z m93 13 c-10 -9 -11 -8 -5
6 3 10 9 15 12 12 3 -3 0 -11 -7 -18z m-47 -43 c3 -8 2 -12 -4 -9 -6 3 -10 1
-10 -6 0 -7 -2 -10 -5 -7 -5 5 4 38 10 38 2 0 6 -7 9 -16z m4 -59 c-3 -3 -9 2
-12 12 -6 14 -5 15 5 6 7 -7 10 -15 7 -18z m-2866 -52 c21 -18 23 -51 5 -74
-7 -8 -66 -44 -132 -79 -66 -35 -187 -99 -270 -143 -123 -65 -154 -78 -174
-71 -35 13 -47 37 -35 71 8 24 51 50 274 170 146 78 276 142 289 142 14 1 33
-6 43 -16z m3001 -58 c-3 -9 -8 -14 -10 -11 -3 3 -2 9 2 15 9 16 15 13 8 -4z
m-81 -37 c-8 -8 -9 -4 -5 13 4 13 8 18 11 10 2 -7 -1 -18 -6 -23z m128 -63 c0
-5 -5 -3 -10 5 -5 8 -10 20 -10 25 0 6 5 3 10 -5 5 -8 10 -19 10 -25z m-102
-30 c-3 -3 -9 2 -12 12 -6 14 -5 15 5 6 7 -7 10 -15 7 -18z m32 -50 c0 -8 -2
-15 -4 -15 -2 0 -6 7 -10 15 -3 8 -1 15 4 15 6 0 10 -7 10 -15z m28 -21 c0
-18 -3 -22 -9 -13 -11 18 -11 39 0 39 5 0 9 -12 9 -26z m26 0 c3 -8 2 -12 -4
-9 -6 3 -10 10 -10 16 0 14 7 11 14 -7z m-40 -30 c3 -8 2 -12 -4 -9 -6 3 -10
10 -10 16 0 14 7 11 14 -7z m77 -17 c-10 -9 -11 -8 -5 6 3 10 9 15 12 12 3 -3
0 -11 -7 -18z"/>
<path d="M1550 9828 c0 -9 -6 -18 -12 -21 -7 -2 -9 -8 -5 -13 4 -5 12 -2 18 6
8 13 10 13 19 0 5 -8 10 -10 10 -5 -1 6 -7 19 -15 29 -12 16 -15 17 -15 4z"/>
<path d="M1691 9610 c14 -31 19 -36 19 -24 0 6 -7 19 -16 30 -14 18 -14 18 -3
-6z"/>
<path d="M1640 9531 c0 -5 5 -13 10 -16 6 -3 10 -2 10 4 0 5 -4 13 -10 16 -5
3 -10 2 -10 -4z"/>
</g>
</svg>
